<svg xmlns="http://www.w3.org/2000/svg" width="512" height="512" viewBox="0 0 512 512">
<defs>
  <filter id="glow" x="-50%" y="-50%" width="200%" height="200%">
    <feGaussianBlur stdDeviation="6" result="b"/>
    <feMerge><feMergeNode in="b"/><feMergeNode in="SourceGraphic"/></feMerge>
  </filter>
  <filter id="soft" x="-50%" y="-50%" width="200%" height="200%"><feGaussianBlur stdDeviation="14"/></filter>
  <radialGradient id="core" cx="0.5" cy="0.5" r="0.5">
    <stop offset="0" stop-color="#fff4dd"/><stop offset="0.35" stop-color="#ff9a4d" stop-opacity="0.9"/>
    <stop offset="1" stop-color="#ff9a4d" stop-opacity="0"/>
  </radialGradient>
</defs>

  <ellipse cx="256" cy="308" rx="120" ry="70" fill="url(#core)" filter="url(#soft)"/>
  <circle cx="172.62" cy="281.06" r="23.75" fill="#e883d2" opacity="0.28"/><circle cx="172.62" cy="281.06" r="12.50" fill="#e883d2"/><circle cx="169.49" cy="277.94" r="4.75" fill="#ffffff" opacity="0.75"/>
  <circle cx="206.57" cy="244.29" r="23.75" fill="#e883d2" opacity="0.28"/><circle cx="206.57" cy="244.29" r="12.50" fill="#e883d2"/><circle cx="203.44" cy="241.16" r="4.75" fill="#ffffff" opacity="0.75"/>
  <circle cx="256.00" cy="230.60" r="23.75" fill="#e883d2" opacity="0.28"/><circle cx="256.00" cy="230.60" r="12.50" fill="#e883d2"/><circle cx="252.87" cy="227.48" r="4.75" fill="#ffffff" opacity="0.75"/>
  <circle cx="305.43" cy="244.29" r="23.75" fill="#e883d2" opacity="0.28"/><circle cx="305.43" cy="244.29" r="12.50" fill="#e883d2"/><circle cx="302.31" cy="241.16" r="4.75" fill="#ffffff" opacity="0.75"/>
  <circle cx="339.38" cy="281.06" r="23.75" fill="#e883d2" opacity="0.28"/><circle cx="339.38" cy="281.06" r="12.50" fill="#e883d2"/><circle cx="336.26" cy="277.94" r="4.75" fill="#ffffff" opacity="0.75"/>
  <circle cx="129.12" cy="261.79" r="19.00" fill="#be7bff" opacity="0.28"/><circle cx="129.12" cy="261.79" r="10.00" fill="#be7bff"/><circle cx="126.62" cy="259.29" r="3.80" fill="#ffffff" opacity="0.75"/>
  <circle cx="159.93" cy="221.26" r="19.00" fill="#be7bff" opacity="0.28"/><circle cx="159.93" cy="221.26" r="10.00" fill="#be7bff"/><circle cx="157.43" cy="218.76" r="3.80" fill="#ffffff" opacity="0.75"/>
  <circle cx="204.31" cy="194.40" r="19.00" fill="#be7bff" opacity="0.28"/><circle cx="204.31" cy="194.40" r="10.00" fill="#be7bff"/><circle cx="201.81" cy="191.90" r="3.80" fill="#ffffff" opacity="0.75"/>
  <circle cx="256.00" cy="185.00" r="19.00" fill="#be7bff" opacity="0.28"/><circle cx="256.00" cy="185.00" r="10.00" fill="#be7bff"/><circle cx="253.50" cy="182.50" r="3.80" fill="#ffffff" opacity="0.75"/>
  <circle cx="307.69" cy="194.40" r="19.00" fill="#be7bff" opacity="0.28"/><circle cx="307.69" cy="194.40" r="10.00" fill="#be7bff"/><circle cx="305.19" cy="191.90" r="3.80" fill="#ffffff" opacity="0.75"/>
  <circle cx="352.07" cy="221.26" r="19.00" fill="#be7bff" opacity="0.28"/><circle cx="352.07" cy="221.26" r="10.00" fill="#be7bff"/><circle cx="349.57" cy="218.76" r="3.80" fill="#ffffff" opacity="0.75"/>
  <circle cx="382.88" cy="261.79" r="19.00" fill="#be7bff" opacity="0.28"/><circle cx="382.88" cy="261.79" r="10.00" fill="#be7bff"/><circle cx="380.38" cy="259.29" r="3.80" fill="#ffffff" opacity="0.75"/>
  <circle cx="87.43" cy="243.32" r="15.20" fill="#8b90ff" opacity="0.28"/><circle cx="87.43" cy="243.32" r="8.00" fill="#8b90ff"/><circle cx="85.43" cy="241.32" r="3.04" fill="#ffffff" opacity="0.75"/>
  <circle cx="116.16" cy="201.49" r="15.20" fill="#8b90ff" opacity="0.28"/><circle cx="116.16" cy="201.49" r="8.00" fill="#8b90ff"/><circle cx="114.16" cy="199.49" r="3.04" fill="#ffffff" opacity="0.75"/>
  <circle cx="156.06" cy="168.97" r="15.20" fill="#8b90ff" opacity="0.28"/><circle cx="156.06" cy="168.97" r="8.00" fill="#8b90ff"/><circle cx="154.06" cy="166.97" r="3.04" fill="#ffffff" opacity="0.75"/>
  <circle cx="203.95" cy="148.36" r="15.20" fill="#8b90ff" opacity="0.28"/><circle cx="203.95" cy="148.36" r="8.00" fill="#8b90ff"/><circle cx="201.95" cy="146.36" r="3.04" fill="#ffffff" opacity="0.75"/>
  <circle cx="256.00" cy="141.30" r="15.20" fill="#8b90ff" opacity="0.28"/><circle cx="256.00" cy="141.30" r="8.00" fill="#8b90ff"/><circle cx="254.00" cy="139.30" r="3.04" fill="#ffffff" opacity="0.75"/>
  <circle cx="308.05" cy="148.36" r="15.20" fill="#8b90ff" opacity="0.28"/><circle cx="308.05" cy="148.36" r="8.00" fill="#8b90ff"/><circle cx="306.05" cy="146.36" r="3.04" fill="#ffffff" opacity="0.75"/>
  <circle cx="355.94" cy="168.97" r="15.20" fill="#8b90ff" opacity="0.28"/><circle cx="355.94" cy="168.97" r="8.00" fill="#8b90ff"/><circle cx="353.94" cy="166.97" r="3.04" fill="#ffffff" opacity="0.75"/>
  <circle cx="395.84" cy="201.49" r="15.20" fill="#8b90ff" opacity="0.28"/><circle cx="395.84" cy="201.49" r="8.00" fill="#8b90ff"/><circle cx="393.84" cy="199.49" r="3.04" fill="#ffffff" opacity="0.75"/>
  <circle cx="424.57" cy="243.32" r="15.20" fill="#8b90ff" opacity="0.28"/><circle cx="424.57" cy="243.32" r="8.00" fill="#8b90ff"/><circle cx="422.57" cy="241.32" r="3.04" fill="#ffffff" opacity="0.75"/>
  <circle cx="47.55" cy="225.66" r="11.78" fill="#5ad1ff" opacity="0.28"/><circle cx="47.55" cy="225.66" r="6.20" fill="#5ad1ff"/><circle cx="46.00" cy="224.11" r="2.36" fill="#ffffff" opacity="0.75"/>
  <circle cx="74.76" cy="183.48" r="11.78" fill="#5ad1ff" opacity="0.28"/><circle cx="74.76" cy="183.48" r="6.20" fill="#5ad1ff"/><circle cx="73.21" cy="181.93" r="2.36" fill="#ffffff" opacity="0.75"/>
  <circle cx="111.26" cy="148.19" r="11.78" fill="#5ad1ff" opacity="0.28"/><circle cx="111.26" cy="148.19" r="6.20" fill="#5ad1ff"/><circle cx="109.71" cy="146.64" r="2.36" fill="#ffffff" opacity="0.75"/>
  <circle cx="155.17" cy="121.61" r="11.78" fill="#5ad1ff" opacity="0.28"/><circle cx="155.17" cy="121.61" r="6.20" fill="#5ad1ff"/><circle cx="153.62" cy="120.06" r="2.36" fill="#ffffff" opacity="0.75"/>
  <circle cx="204.26" cy="105.10" r="11.78" fill="#5ad1ff" opacity="0.28"/><circle cx="204.26" cy="105.10" r="6.20" fill="#5ad1ff"/><circle cx="202.71" cy="103.55" r="2.36" fill="#ffffff" opacity="0.75"/>
  <circle cx="256.00" cy="99.50" r="11.78" fill="#5ad1ff" opacity="0.28"/><circle cx="256.00" cy="99.50" r="6.20" fill="#5ad1ff"/><circle cx="254.45" cy="97.95" r="2.36" fill="#ffffff" opacity="0.75"/>
  <circle cx="307.74" cy="105.10" r="11.78" fill="#5ad1ff" opacity="0.28"/><circle cx="307.74" cy="105.10" r="6.20" fill="#5ad1ff"/><circle cx="306.19" cy="103.55" r="2.36" fill="#ffffff" opacity="0.75"/>
  <circle cx="356.83" cy="121.61" r="11.78" fill="#5ad1ff" opacity="0.28"/><circle cx="356.83" cy="121.61" r="6.20" fill="#5ad1ff"/><circle cx="355.28" cy="120.06" r="2.36" fill="#ffffff" opacity="0.75"/>
  <circle cx="400.74" cy="148.19" r="11.78" fill="#5ad1ff" opacity="0.28"/><circle cx="400.74" cy="148.19" r="6.20" fill="#5ad1ff"/><circle cx="399.19" cy="146.64" r="2.36" fill="#ffffff" opacity="0.75"/>
  <circle cx="437.24" cy="183.48" r="11.78" fill="#5ad1ff" opacity="0.28"/><circle cx="437.24" cy="183.48" r="6.20" fill="#5ad1ff"/><circle cx="435.69" cy="181.93" r="2.36" fill="#ffffff" opacity="0.75"/>
  <circle cx="464.45" cy="225.66" r="11.78" fill="#5ad1ff" opacity="0.28"/><circle cx="464.45" cy="225.66" r="6.20" fill="#5ad1ff"/><circle cx="462.90" cy="224.11" r="2.36" fill="#ffffff" opacity="0.75"/>
  <path d="M 70 318 Q 256 436 442 318" fill="none" stroke="#e4e8f4" stroke-width="15" stroke-linecap="round"/>
  <line x1="133.2" y1="362.1" x2="124.2" y2="384.3" stroke="#e4e8f4" stroke-width="11" stroke-linecap="round"/>
  <line x1="194.5" y1="380.8" x2="189.7" y2="404.3" stroke="#e4e8f4" stroke-width="11" stroke-linecap="round"/>
  <line x1="256.0" y1="387.0" x2="256.0" y2="411.0" stroke="#e4e8f4" stroke-width="11" stroke-linecap="round"/>
  <line x1="317.5" y1="380.8" x2="322.3" y2="404.3" stroke="#e4e8f4" stroke-width="11" stroke-linecap="round"/>
  <line x1="378.8" y1="362.1" x2="387.8" y2="384.3" stroke="#e4e8f4" stroke-width="11" stroke-linecap="round"/>
</svg>
